<svg width="50px" height="50px" id="Icons" viewBox="0 0 60 60" xmlns="http://www.w3.org/2000/svg">
				<path
					d="m30.544 22.44a.5.5 0 0 1 -.281-.914l.116-.079-1.534.886a.5.5 0 0 1 -.555-.829l5.481-4.211-8.123 4.689a.5.5 0 0 1 -.546-.835l4.322-3.189-6.024 3.478a.5.5 0 0 1 -.564-.822l4.829-3.895-6.554 3.781a.5.5 0 0 1 -.534-.844l.128-.089-.618.357a.5.5 0 0 1 -.548-.834l1.706-1.269-2.251 1.3a.5.5 0 0 1 -.575-.812l2.429-2.075-2.568 1.484a.5.5 0 0 1 -.6-.793l1.4-1.347-.806.465a.5.5 0 0 1 -.74-.53l.33-1.66a.5.5 0 0 1 -.091-.907l.5-.29a.5.5 0 0 1 .74.531l-.286 1.439 3.42-1.974a.5.5 0 0 1 .6.793l-1.4 1.346 3.712-2.143a.5.5 0 0 1 .575.813l-2.428 2.073 5.006-2.889a.5.5 0 0 1 .549.834l-1.709 1.27 3.651-2.107a.5.5 0 0 1 .535.843l-.123.085 1.614-.931a.5.5 0 0 1 .564.821l-4.828 3.895 8.179-4.721a.5.5 0 0 1 .547.835l-4.322 3.188 6.977-4.027a.5.5 0 0 1 .554.829l-5.482 4.212 6.8-3.926a.5.5 0 0 1 .531.847l-.384.26a.509.509 0 0 1 .508.193.5.5 0 0 1 -.066.665l-3.244 2.966 2.66-1.535a.5.5 0 0 1 .5.865l-6.633 3.829a.5.5 0 0 1 -.587-.8l3.242-2.965-7.456 4.305a.488.488 0 0 1 -.245.065z"
					fill="#3d4249" />
				<path
					d="m6.237 27.433a.5.5 0 0 1 -.373-.833l1.636-1.829-3.4 1.963a.5.5 0 0 1 -.592-.8l2.385-2.226-3.01 1.737a.5.5 0 0 1 -.565-.82l1.148-.934-1.04.6a.5.5 0 0 1 -.566-.82l.622-.506-.132.075a.5.5 0 0 1 -.618-.772l1.193-1.295a.5.5 0 0 1 -.2-.93l2.31-1.334a.5.5 0 0 1 .618.771l-.974 1.058 2.692-1.554a.5.5 0 0 1 .566.821l-.62.5 1.1-.632a.5.5 0 0 1 .566.82l-1.152.936 1.352-.781a.5.5 0 0 1 .592.8l-2.389 2.231 2.3-1.327a.5.5 0 0 1 .623.765l-1.631 1.829.369-.213a.5.5 0 1 1 .5.866l-3.06 1.766a.493.493 0 0 1 -.25.068z"
					fill="#d6dbe3" />
				<path
					d="m14.282 59.1a.5.5 0 0 1 -.35-.858l.849-.83-1.175.678a.5.5 0 0 1 -.59-.8l1.389-1.29-1.125.649a.5.5 0 0 1 -.592-.8l1.745-1.629-1.153.665a.5.5 0 0 1 -.606-.785l2.326-2.343-1.719.991a.5.5 0 0 1 -.593-.8l1.848-1.747-1.255.724a.5.5 0 0 1 -.577-.811l.963-.833-.386.223a.5.5 0 0 1 -.569-.819l.168-.138-.066.038a.5.5 0 0 1 -.569-.818l.174-.144-1.343.775a.5.5 0 0 1 -.561-.824l.3-.238-1.843 1.064a.5.5 0 0 1 -.563-.823l1.035-.828-2.715 1.569a.5.5 0 0 1 -.649-.131.5.5 0 0 1 .052-.661l2.1-2.029-3.63 2.1a.5.5 0 0 1 -.602-.788l2.253-2.285-3.053 1.762a.5.5 0 0 1 -.593-.8l.934-.878-.931.537a.5.5 0 0 1 -.71-.629l.571-1.326a.5.5 0 0 1 -.388-.913l1.181-.677a.5.5 0 0 1 .709.63l-.561 1.3 3.357-1.937a.5.5 0 0 1 .592.8l-.933.878 2.524-1.461a.5.5 0 0 1 .606.784l-2.253 2.284 3.95-2.28a.5.5 0 0 1 .6.792l-2.1 2.029 4.887-2.819a.5.5 0 0 1 .562.823l-1.032.826 2.066-1.192a.5.5 0 0 1 .56.824l-.3.239.57-.329a.5.5 0 0 1 .569.817l-.174.145.083-.048a.5.5 0 0 1 .568.819l-.262.216a.5.5 0 0 1 .446.864l-.962.832.385-.222a.5.5 0 0 1 .594.8l-1.848 1.747 1.254-.724a.5.5 0 0 1 .606.784l-2.327 2.341 1.717-.991a.5.5 0 0 1 .592.8l-1.742 1.629 1.153-.665a.5.5 0 0 1 .591.8l-1.389 1.293.8-.461a.5.5 0 0 1 .6.791l-.849.83.25-.144a.5.5 0 1 1 .5.865l-3.689 2.13a.5.5 0 0 1 -.252.061z"
					fill="#79808f" />
				<path
					d="m15.578 39.471a.5.5 0 0 1 -.362-.845l1.359-1.426-3.526 2.035a.5.5 0 0 1 -.649-.735l1.415-1.866-2.54 1.466a.5.5 0 0 1 -.643-.123.5.5 0 0 1 .031-.655l.934-.981-1.219.7a.5.5 0 1 1 -.5-.865l4.222-2.432a.5.5 0 0 1 .612.777l-.934.982 1.688-.974a.5.5 0 0 1 .648.735l-1.414 1.866 4.383-2.53a.5.5 0 0 1 .612.777l-1.36 1.423 2.753-1.589a.5.5 0 0 1 .6.787l-.625.622.579-.334a.5.5 0 0 1 .632.755l-.44.523a.5.5 0 0 1 .052.892l-1.638.945a.5.5 0 0 1 -.632-.755l.059-.07-1.43.825a.494.494 0 0 1 -.647-.129.5.5 0 0 1 .044-.658l.624-.621-2.438 1.407a.493.493 0 0 1 -.25.071z"
					fill="#ec3a48" />
				<path
					d="m4.256 43.491a.5.5 0 0 1 -.322-.883l1.4-1.175-3.054 1.76a.5.5 0 0 1 -.547-.835l4.9-3.612-4.353 2.511a.5.5 0 0 1 -.544-.837l3.5-2.543-2.954 1.7a.5.5 0 0 1 -.56-.825l4.636-3.652-4.078 2.355a.5.5 0 0 1 -.541-.839l1.061-.757-.516.3a.5.5 0 0 1 -.559-.826l2.9-2.275-2.345 1.348a.5.5 0 0 1 -.559-.826l1.9-1.5-1.346.777a.5.5 0 0 1 -.6-.793l2.43-2.341-1.705.995a.5.5 0 0 1 -.6-.786l.989-.992a.5.5 0 0 1 -.059-.894l2.31-1.333a.5.5 0 0 1 .6.786l-.457.458 1.976-1.141a.5.5 0 0 1 .6.793l-2.439 2.342 3.892-2.246a.5.5 0 0 1 .559.826l-1.9 1.5 2.341-1.351a.5.5 0 0 1 .558.826l-2.9 2.276 3.317-1.915a.5.5 0 0 1 .541.839l-1.062.761 1.2-.693a.5.5 0 0 1 .559.825l-4.637 3.648 5.189-2.995a.5.5 0 0 1 .544.837l-3.5 2.545 3.834-2.213a.5.5 0 0 1 .546.835l-4.901 3.612.225-.129a.5.5 0 0 1 .572.816l-1.397 1.175.832-.479a.5.5 0 0 1 .679.69l-.981 1.637.315-.182a.5.5 0 1 1 .5.866l-1.99 1.148a.5.5 0 0 1 -.679-.69l.984-1.636-4.054 2.34a.494.494 0 0 1 -.25.067z"
					fill="#ec3a48" />
				<path
					d="m53.815 27.44a.5.5 0 0 1 -.334-.872l.548-.492-1.515.875a.5.5 0 0 1 -.6-.8l2.3-2.182-3.153 1.82a.5.5 0 0 1 -.6-.79l2.764-2.7-2.862 1.651a.5.5 0 0 1 -.572-.814l.787-.665-.161.093a.5.5 0 0 1 -.6-.793l.9-.867a.485.485 0 0 1 -.184-.184.5.5 0 0 1 .183-.682l2.31-1.334a.5.5 0 0 1 .6.793l-.152.146 1.489-.859a.5.5 0 0 1 .572.814l-.788.665 1.428-.824a.5.5 0 0 1 .6.79l-2.763 2.7 3.347-1.929a.5.5 0 0 1 .595.795l-2.3 2.182 2.022-1.167a.5.5 0 0 1 .584.8l-.792.711a.5.5 0 0 1 .249.933l-3.656 2.11a.489.489 0 0 1 -.246.076z"
					fill="#d6dbe3" />
				<path
					d="m48.224 48.471a.5.5 0 0 1 -.25-.933l9.326-5.386a.5.5 0 0 1 .547.835l-.165.122a.5.5 0 0 1 .565.8l-1.741 1.935a.507.507 0 0 1 .543.238.5.5 0 0 1 -.183.683l-2.544 1.469a.5.5 0 0 1 -.622-.766l1.7-1.888-4.893 2.82a.5.5 0 0 1 -.547-.835l.142-.1-1.628.939a.5.5 0 0 1 -.25.067z"
					fill="#79808f" />
				<path
					d="m44.693 59.433a.506.506 0 0 1 -.37-.163.5.5 0 0 1 -.038-.626l.953-1.343-2.277 1.314a.5.5 0 0 1 -.583-.8l.644-.576-.61.352a.5.5 0 0 1 -.589-.8l1.5-1.38-1.04.6a.5.5 0 0 1 -.589-.8l1.621-1.491-1.032.595a.5.5 0 0 1 -.591-.8l1.738-1.622-1.148.662a.5.5 0 0 1 -.524-.851l.7-.462-.178.1a.5.5 0 0 1 -.554-.829l5.525-4.241-4.971 2.87a.5.5 0 0 1 -.584-.8l2.764-2.479-2.18 1.258a.5.5 0 0 1 -.655-.725l1.226-1.7a.506.506 0 0 1 -.6-.22.5.5 0 0 1 .183-.683l1.934-1.116a.5.5 0 0 1 .656.725l-1.218 1.678 4.311-2.488a.5.5 0 0 1 .584.8l-2.762 2.477 7.414-4.279a.5.5 0 0 1 .554.829l-5.526 4.241 8.513-4.914a.5.5 0 0 1 .524.851l-9.962 6.548a.5.5 0 0 1 -.145.482l-1.739 1.623 1.148-.662a.5.5 0 0 1 .589.8l-1.62 1.49 1.032-.6a.5.5 0 0 1 .589.8l-1.5 1.38.909-.524a.5.5 0 0 1 .583.806l-.646.577.063-.036a.5.5 0 0 1 .658.722l-.991 1.4a.5.5 0 0 1 .525.241.5.5 0 0 1 -.183.683l-1.787 1.032a.49.49 0 0 1 -.248.074z"
					fill="#79808f" />
				<g fill="#f2bc44">
					<path
						d="m50.571 43.5a.5.5 0 0 1 -.306-.894l1.665-1.3-1.65.952a.5.5 0 0 1 -.565-.822l3.05-2.473-2.485 1.437a.5.5 0 0 1 -.544-.837l.382-.277a.511.511 0 0 1 -.5-.2.5.5 0 0 1 .088-.67l3.594-3.016-3.02 1.736a.5.5 0 0 1 -.5-.865l7.943-4.586a.5.5 0 0 1 .571.815l-3.588 3.017 3.023-1.746a.5.5 0 0 1 .543.838l-.379.275a.5.5 0 0 1 .4.881l-3.048 2.472 2.49-1.437a.5.5 0 0 1 .557.827l-1.667 1.3 1.114-.643a.5.5 0 0 1 .574.814l-.856.73.286-.165a.5.5 0 0 1 .708.633l-.651 1.492a.5.5 0 0 1 .448.892l-1.261.727a.5.5 0 0 1 -.708-.633l.649-1.488-3.7 2.136a.5.5 0 0 1 -.575-.814l.857-.73-2.69 1.553a.491.491 0 0 1 -.249.069z" />
					<path
						d="m43.064 39.471a.5.5 0 0 1 -.284-.911l4.22-2.918-6.515 3.758a.5.5 0 0 1 -.651-.731l1.488-2-2.822 1.631a.5.5 0 0 1 -.679-.691l.7-1.171a.505.505 0 0 1 -.631-.209.5.5 0 0 1 .183-.683l1.619-.935a.5.5 0 0 1 .679.691l-.7 1.166 3.248-1.868a.5.5 0 0 1 .651.731l-1.488 2 15.079-8.706a.5.5 0 0 1 .534.844l-4.222 2.919 4.153-2.4a.5.5 0 0 1 .547.835l-8.243 6.066a.5.5 0 0 1 -.2.648l-3.173 1.831a.5.5 0 0 1 -.547-.835l4.317-3.178-7.013 4.045a.493.493 0 0 1 -.25.071z" />
					<path
						d="m45.765 34.53a.5.5 0 0 1 -.289-.908l1.848-1.309a.5.5 0 0 1 -.235-.865l2.462-2.186a.489.489 0 0 1 -.165-.173.5.5 0 0 1 .182-.683l2.744-1.584a.5.5 0 0 1 .583.807l-1.465 1.3 3.635-2.1a.5.5 0 0 1 .539.841l-.766.543 1.337-.772a.5.5 0 0 1 .5.866l-10.66 6.154a.494.494 0 0 1 -.25.069z" />
				</g>
				<path
					d="m28.809 43.471a.5.5 0 0 1 -.319-.886l.123-.1-1.593.92a.5.5 0 0 1 -.638-.749l1.493-1.83-4.467 2.574a.5.5 0 0 1 -.58-.807l.7-.613-2.46 1.42a.5.5 0 0 1 -.655-.724l1.477-2.053-4.815 2.777a.5.5 0 0 1 -.581-.807l.717-.633-2.326 1.343a.5.5 0 0 1 -.632-.756l1.4-1.646-1.369.79a.5.5 0 0 1 -.69-.671l.46-.846a.5.5 0 0 1 -.185-.929l1.127-.65a.5.5 0 0 1 .689.671l-.366.673 2.33-1.344a.5.5 0 0 1 .631.756l-1.4 1.649 4.162-2.4a.5.5 0 0 1 .581.807l-.719.634 2.496-1.441a.5.5 0 0 1 .656.724l-1.476 2.05 4.81-2.774a.5.5 0 0 1 .58.807l-.7.613 2.459-1.42a.5.5 0 0 1 .631.108.5.5 0 0 1 .007.641l-1.493 1.829 4.472-2.578a.5.5 0 0 1 .567.818l-.123.1 1.595-.921a.5.5 0 0 1 .583.8l-.791.706 2.623-1.503a.5.5 0 0 1 .623.765l-1.446 1.624 4.135-2.389a.5.5 0 0 1 .6.791l-1.183 1.149 3.319-1.916a.5.5 0 0 1 .647.736l-1.474 1.925 1.7-.979a.5.5 0 0 1 .689.671l-.46.849a.5.5 0 0 1 .185.93l-1.123.647a.5.5 0 0 1 -.69-.672l.366-.675-2.334 1.344a.5.5 0 0 1 -.648-.736l1.473-1.924-4.611 2.66a.5.5 0 0 1 -.6-.791l1.182-1.152-3.365 1.943a.5.5 0 0 1 -.623-.765l1.446-1.624-4.138 2.389a.5.5 0 0 1 -.583-.8l.792-.707-2.621 1.507a.492.492 0 0 1 -.249.071z"
					fill="#3d4249" />
				<path
					d="m29.507 17.357a.5.5 0 0 1 -.287-.909l6.12-4.283-7.673 4.435a.5.5 0 0 1 -.537-.842l6.185-4.335-7.752 4.476a.5.5 0 0 1 -.529-.848l3.715-2.494-4.837 2.792a.5.5 0 0 1 -.544-.837l7.508-5.473-9.476 5.468a.5.5 0 0 1 -.536-.843l6.019-4.2-7.547 4.357a.5.5 0 0 1 -.525-.85l1.671-1.1-2.562 1.478a.5.5 0 0 1 -.53-.847l4.368-2.96-5.586 3.225a.5.5 0 0 1 -.539-.841l6.674-4.736-8.369 4.832a.5.5 0 0 1 -.548-.834l5.652-4.181-7.378 4.259a.5.5 0 0 1 -.6-.793l2.876-2.759-4.734 2.732a.5.5 0 0 1 -.714-.617l.4-1-.52.3a.5.5 0 1 1 -.5-.865l1.766-1.02a.5.5 0 0 1 .715.617l-.4 1 7.053-4.072a.5.5 0 0 1 .6.793l-2.876 2.759 11.442-6.606a.5.5 0 0 1 .548.835l-5.651 4.18 9.993-5.769a.5.5 0 0 1 .539.841l-6.675 4.737 8.374-4.833a.5.5 0 0 1 .53.846l-4.37 2.959 5.584-3.223a.5.5 0 0 1 .524.85l-1.668 1.099 2.562-1.479a.5.5 0 0 1 .536.843l-6.017 4.2 7.545-4.356a.5.5 0 0 1 .545.837l-7.516 5.475 9.481-5.477a.5.5 0 0 1 .528.847l-3.711 2.498 4.834-2.791a.5.5 0 0 1 .537.841l-6.184 4.334 7.752-4.475a.5.5 0 0 1 .537.842l-6.123 4.285 7.675-4.431a.5.5 0 0 1 .556.828l-4.666 3.61 6.378-3.682a.5.5 0 0 1 .642.743l-1.737 2.188 3.428-1.98a.5.5 0 1 1 .5.865l-5.706 3.3a.5.5 0 0 1 -.641-.743l1.738-2.188-10.512 6.063a.5.5 0 0 1 -.555-.828l4.665-3.61-11.214 6.474a.494.494 0 0 1 -.25.067z"
					fill="#505660" />
				<path
					d="m31.151 11.354a.5.5 0 0 1 -.437-.743l.886-1.594-3.51 2.024a.5.5 0 0 1 -.611-.778l.9-.942-1.669.964a.5.5 0 0 1 -.654-.727l.537-.736-.086.049a.5.5 0 1 1 -.5-.865l2.133-1.233a.5.5 0 0 1 .654.728l-.537.735 2.643-1.523a.5.5 0 0 1 .612.778l-.9.943 2.047-1.184a.5.5 0 0 1 .688.675l-.884 1.595 1.137-.657a.5.5 0 0 1 .5.866l-2.7 1.557a.49.49 0 0 1 -.249.068z"
					fill="#f2bc44" />
				<path
					d="m54.724 48.289h3.805a1.978 1.978 0 0 0 1.024-.274c.218-.138.21-.3-.081-.3h-3.823a5.565 5.565 0 0 0 3.071-4.718c0-.015.015-.028.015-.043v-10.554a12.149 12.149 0 0 0 -.092-2.4 4.044 4.044 0 0 0 -2.743-3.2 5.1 5.1 0 0 0 1.786-1.258 4.105 4.105 0 0 0 .365-4.961 4.507 4.507 0 0 0 -4.876-1.7 4.605 4.605 0 0 0 -3.9 4.314 4.116 4.116 0 0 0 2.531 3.733 6.838 6.838 0 0 0 -2.737 1.684c-1.539 1.614-2.552 3.7-4.06 5.336-.85.922-2.945.5-4.086.5-1.729 0-3.52.551-3.659 2.6a.435.435 0 0 0 .018.1c0 .016-.009.029-.007.045a2.274 2.274 0 0 0 .651 1.494h-16.132a2.334 2.334 0 0 0 .93-1.782c0-.019-.012-.03-.013-.047s.015-.034.013-.053c-.124-1.785-1.645-2.205-3.141-2.205h-2.083a4.919 4.919 0 0 1 -1.7-.1c-.929-.365-1.682-1.847-2.238-2.589-.691-.92-1.365-1.856-2.073-2.763a6.739 6.739 0 0 0 -3.345-2.221 4.625 4.625 0 0 0 2.583-3.991 4.432 4.432 0 0 0 -2.967-4.167 5.069 5.069 0 0 0 -5.4 1.447 4.416 4.416 0 0 0 -.46 5.141 4.264 4.264 0 0 0 2.039 1.743 4.605 4.605 0 0 0 -2.128 1.989 5.653 5.653 0 0 0 -.535 2.891v11.214a5.242 5.242 0 0 0 2.348 4.249h-2.567a.81.81 0 0 0 -.793.605c-.036.384.378.509.679.509h4.324v10.01h-1.991a1.131 1.131 0 0 0 -.954.405c-.175.288.149.461.4.461h2.76a.991.991 0 0 0 .836 0h2.406a1.131 1.131 0 0 0 .954-.405c.175-.288-.149-.461-.4-.461h-2.545v-10.01h.21a.919.919 0 0 0 .446-.14c1.148.024 2.311-.039 3.447-.039.7 0 1.353-.1 1.44.834.047.511 0 1.049 0 1.562v5.35a3.47 3.47 0 0 0 .36 1.86 2.96 2.96 0 0 0 2.789 1.385 3.586 3.586 0 0 0 2.989-1.769 3.534 3.534 0 0 0 .31-1.722v-9.647a3.509 3.509 0 0 0 -1.324-2.889c.528-.015 1.054-.03 1.571-.03h10.3v15.175h-7.2c-.814 0-1.123 1.026-.138 1.026h16c.814 0 1.123-1.026.138-1.026h-7.341v-15.175h12.191a3.25 3.25 0 0 0 -1.647 2.773c-.1 3.014 0 6.047 0 9.063 0 1.43-.114 2.906 1.276 3.8 2 1.29 5.09-.113 5.176-2.551.052-1.477 0-2.965 0-4.442v-2.47a5.157 5.157 0 0 1 0-.542.939.939 0 0 1 .122-.476c.014-.021 0-.026-.023-.026.019 0 .023 0 .056-.011a5.733 5.733 0 0 1 1.186 0h1.711c.722 0 1.446.019 2.168-.005.111 0 .22-.016.33-.026v10.071h-2.212c-.314 0-.76.243-.8.585-.041.379.387.475.67.475h6c.314 0 .76-.243.8-.585.041-.379-.387-.475-.67-.475h-2.34zm-4-25.483a3.726 3.726 0 0 1 2.184-3.443c1.3-.461 2.9.489 3.632 1.52a3.971 3.971 0 0 1 .236 4.211 3.527 3.527 0 0 1 -1.509 1.47 1.322 1.322 0 0 1 -.143.045 6.223 6.223 0 0 0 -1.662-.043 3.972 3.972 0 0 1 -2.738-3.76zm-8.784 12.742a7.071 7.071 0 0 0 3.4-.378 6.806 6.806 0 0 0 1.878-2.081l2.237-2.983a5.692 5.692 0 0 1 3.514-2.475 3.558 3.558 0 0 1 4.3 3.419c.059 1.83 0 3.671 0 5.5v5.9h-6.53v-5.955q.805-1.006 1.612-2.014l.248-.31a.417.417 0 0 0 .129-.365.4.4 0 0 0 -.294-.251 1.036 1.036 0 0 0 -.547.009.965.965 0 0 0 -.478.265l-1.752 2.19-.084.106a.68.68 0 0 0 -.179.148c-.8 1.006-1.547 2.038-2.949 2.168-.687.063-1.4.011-2.088.011h-3.19c-1.172 0-2.25-.094-2.42-1.54.144-1.733 1.934-1.364 3.193-1.364zm3.816 7.022c-.114 0-.228.016-.342.022a1.225 1.225 0 0 0 .251-.4 6.073 6.073 0 0 0 .059-1.973 2.219 2.219 0 0 0 -.1-.654 6.7 6.7 0 0 0 1.485-.153 4.765 4.765 0 0 0 2.156-1.191v4.349zm-35.032-4.265a4.238 4.238 0 0 0 2.152 1.035 6.906 6.906 0 0 0 .753.077 1.535 1.535 0 0 0 -.353.925 4.885 4.885 0 0 0 .168 2.274q-1.36 0-2.72 0zm-7.198-13.135a3.7 3.7 0 0 1 -.326-4.07 3.041 3.041 0 0 1 3.247-1.549 3.653 3.653 0 0 1 2.823 3.511 3.459 3.459 0 0 1 -2.1 3.265 3.3 3.3 0 0 1 -3.644-1.157zm-.8 5.789a3.46 3.46 0 0 1 2.564-3.515 5.14 5.14 0 0 0 1.176-.008 5.975 5.975 0 0 1 3.734 2.347c1.2 1.572 2.271 3.343 3.611 4.8 1.773 1.927 7.17-.771 7.453 2.566-.147 1.5-1.178 1.452-2.329 1.452h-3.213a11.694 11.694 0 0 1 -2.1-.057c-1.38-.257-2.134-1.3-2.947-2.322l-1.754-2.194-.248-.311a.58.58 0 0 0 -.391-.126 1.37 1.37 0 0 0 -.568.114c-.192.087-.592.322-.387.578l1.752 2.189.2.246v5.882h-6.555c-.004-3.878-.092-7.766 0-11.641zm13.536 27.551c-1.23.584-2.428-.891-2.528-1.988-.036-.392-.01-.8-.01-1.187v-5.079c0-1.2.183-2.569-1.46-2.634-1.552-.062-3.116 0-4.67 0a.849.849 0 0 0 -.537-.178h-.772a4.77 4.77 0 0 1 -3.492-4.044h6.923a1.531 1.531 0 0 0 .245-.023h3.939a3.709 3.709 0 0 1 1.973.328 2.918 2.918 0 0 1 1.4 2.538c.081 2.881 0 5.776 0 8.658.003 1.156.274 2.999-1.011 3.609zm1.082-15.822c-.466 0-.952.029-1.424.007-.117-.022-.245-.025-.368-.037-1.036-.2-.851-1.46-.828-2.334a5.968 5.968 0 0 0 -.077-.9c.419-.008.838-.023 1.244-.023a23.089 23.089 0 0 0 4.356-.089h18.7c1.49.53 3.63.254 4.989.238a1.2 1.2 0 0 1 .343.792c.029.229.112 2.2-.129 2.346h-13.514a.968.968 0 0 0 -1.091 0zm31.365 4.882a2.68 2.68 0 0 0 -2 .588 1.747 1.747 0 0 0 -.434 1.411v4.731c0 1.171.309 3.028-.664 3.9-1.095.979-2.573-.19-2.827-1.368a5.233 5.233 0 0 1 -.057-1.112v-9.155a4.978 4.978 0 0 1 .127-1.516 2.214 2.214 0 0 1 2.256-1.619h4.359a.884.884 0 0 0 .472.118h7.285a4.263 4.263 0 0 1 -4.078 4.022c-1.48.021-2.96 0-4.439 0z"
					fill="#262626" />
				<path
					d="m51.276 15.194c0 .237 1.448.032 1.448-.388v-5.926c.029-1.026-1.135-1.345-1.983-1.627l-11.269-3.753c-2.872-.959-5.767-2.153-8.705-2.9a4.614 4.614 0 0 0 -2.613.463l-5.044 1.679-12.222 4.072a25.843 25.843 0 0 0 -2.51.841c-1.608.73-1.249 2.357.224 2.873q4.32 1.515 8.674 2.984v4.6a.048.048 0 0 0 0 .012v2.918c0 1.2-.092 2.225.941 3.1a12.3 12.3 0 0 0 3.829 2.058 24.469 24.469 0 0 0 14.874.163 15.066 15.066 0 0 0 4.29-2.063 3.158 3.158 0 0 0 1.514-2.787q0-1.815 0-3.629a.132.132 0 0 0 0-.056q0-2.257 0-4.516l7.428-2.475c.34-.113.74-.216 1.124-.357v4.712zm-10.115 7.772c-.461 1.241-2.444 2.034-3.561 2.476a21.679 21.679 0 0 1 -14.384.108 11.61 11.61 0 0 1 -3.645-1.95c-.957-.808-.847-1.758-.847-2.863v-1.124a15.8 15.8 0 0 0 6.258 2.387c5.007.921 10.981.581 15.433-2.125.287-.174.576-.367.861-.571v.881a8.6 8.6 0 0 1 -.115 2.781zm.115-4.923a7.829 7.829 0 0 1 -2.349 1.748 19.059 19.059 0 0 1 -9.285 1.8 18.583 18.583 0 0 1 -8.618-2.031 7.656 7.656 0 0 1 -2.3-1.781v-3.779q5.085 1.7 10.194 3.293a2.857 2.857 0 0 0 1.172.158.931.931 0 0 0 .351-.049l10.835-3.602zm-10.518-1.743-.473.157a6.8 6.8 0 0 1 -2.271-.67l-5.025-1.674-11.4-3.8a11.475 11.475 0 0 1 -2.452-.813c-1.411-.913.607-1.31 1.143-1.489l10.8-3.6 5.492-1.83a19.039 19.039 0 0 1 3.068-1.022 3.57 3.57 0 0 1 1.538.374l4.516 1.5 11.69 3.9a28.948 28.948 0 0 1 3.259 1.085c.023.011.048.026.072.038h-16.065c-.341-1.116-2.069-1.556-3.041-1.706a7.927 7.927 0 0 0 -5.309.95 2.011 2.011 0 0 0 -1.014 1.311 1.5 1.5 0 0 0 .671 1.337 6.823 6.823 0 0 0 4.875.918 6.97 6.97 0 0 0 2.729-.877 2.741 2.741 0 0 0 .913-.847h16.637a3.561 3.561 0 0 1 -.712.222zm2.518-7.109c-.034.964-1.318 1.306-2.07 1.411a5.571 5.571 0 0 1 -3.74-.675c-.727-.49-1.033-1.336-.263-1.954a4.662 4.662 0 0 1 3.422-.567c.944.135 2.609.594 2.651 1.788z"
					fill="#262626" />
			</svg>
			
