<svg width="60" height="66" viewBox="0 0 60 66" fill="none" xmlns="http://www.w3.org/2000/svg">
<g clip-path="url(#clip0_4288_1024)" filter="url(#filter0_d_4288_1024)">
<path d="M24.0068 42.6733L27.7668 46.4333L41.1001 33.1L27.7668 19.7666L24.0068 23.5266L30.8868 30.4333H5.1001V35.7666H30.8868L24.0068 42.6733ZM47.7668 9.09998H10.4334C7.47343 9.09998 5.1001 11.5 5.1001 14.4333V25.1H10.4334V14.4333H47.7668V51.7666H10.4334V41.1H5.1001V51.7666C5.1001 54.7 7.47343 57.1 10.4334 57.1H47.7668C50.7001 57.1 53.1001 54.7 53.1001 51.7666V14.4333C53.1001 11.5 50.7001 9.09998 47.7668 9.09998Z" fill="grey"/>
</g>
<defs>
<filter id="filter0_d_4288_1024" x="-4" y="0" width="68" height="68" filterUnits="userSpaceOnUse" color-interpolation-filters="sRGB">
<feFlood flood-opacity="0" result="BackgroundImageFix"/>
<feColorMatrix in="SourceAlpha" type="matrix" values="0 0 0 0 0 0 0 0 0 0 0 0 0 0 0 0 0 0 127 0" result="hardAlpha"/>
<feOffset dy="4"/>
<feGaussianBlur stdDeviation="2"/>
<feColorMatrix type="matrix" values="0 0 0 0 0 0 0 0 0 0 0 0 0 0 0 0 0 0 0.1 0"/>
<feBlend mode="normal" in2="BackgroundImageFix" result="effect1_dropShadow_4288_1024"/>
<feBlend mode="normal" in="SourceGraphic" in2="effect1_dropShadow_4288_1024" result="shape"/>
</filter>
<clipPath id="clip0_4288_1024">
<rect width="60" height="60" fill="white"/>
</clipPath>
</defs>
</svg>
